HIERARCHY
ROOT Hips
{
	OFFSET 0.00000 0.00000 0.00000
	CHANNELS 6 Xposition Yposition Zposition Zrotation Yrotation Xrotation 
	JOINT LHipJoint
	{
		OFFSET 0 0 0
		CHANNELS 3 Zrotation Yrotation Xrotation
		JOINT LeftUpLeg
		{
			OFFSET 1.36306 -1.79463 0.83929
			CHANNELS 3 Zrotation Yrotation Xrotation
			JOINT LeftLeg
			{
				OFFSET 2.44811 -6.72613 0.00000
				CHANNELS 3 Zrotation Yrotation Xrotation
				JOINT LeftFoot
				{
					OFFSET 2.56220 -7.03959 0.00000
					CHANNELS 3 Zrotation Yrotation Xrotation
					JOINT LeftToeBase
					{
						OFFSET 0.15764 -0.43311 2.32255
						CHANNELS 3 Zrotation Yrotation Xrotation
						End Site
						{
							OFFSET 0.00000 -0.00000 1.18966
						}
					}
				}
			}
		}
	}
	JOINT RHipJoint
	{
		OFFSET 0 0 0
		CHANNELS 3 Zrotation Yrotation Xrotation
		JOINT RightUpLeg
		{
			OFFSET -1.30552 -1.79463 0.83929
			CHANNELS 3 Zrotation Yrotation Xrotation
			JOINT RightLeg
			{
				OFFSET -2.54253 -6.98555 0.00000
				CHANNELS 3 Zrotation Yrotation Xrotation
				JOINT RightFoot
				{
					OFFSET -2.56826 -7.05623 0.00000
					CHANNELS 3 Zrotation Yrotation Xrotation
					JOINT RightToeBase
					{
						OFFSET -0.16473 -0.45259 2.36315
						CHANNELS 3 Zrotation Yrotation Xrotation
						End Site
						{
							OFFSET -0.00000 -0.00000 1.21082
						}
					}
				}
			}
		}
	}
	JOINT LowerBack
	{
		OFFSET 0 0 0
		CHANNELS 3 Zrotation Yrotation Xrotation
		JOINT Spine
		{
			OFFSET 0.02827 2.03559 -0.19338
			CHANNELS 3 Zrotation Yrotation Xrotation
			JOINT Spine1
			{
				OFFSET 0.05672 2.04885 -0.04275
				CHANNELS 3 Zrotation Yrotation Xrotation
				JOINT Neck
				{
					OFFSET 0 0 0
					CHANNELS 3 Zrotation Yrotation Xrotation
					JOINT Neck1
					{
						OFFSET -0.05417 1.74624 0.17202
						CHANNELS 3 Zrotation Yrotation Xrotation
						JOINT Head
						{
							OFFSET 0.10407 1.76136 -0.12397
							CHANNELS 3 Zrotation Yrotation Xrotation
							End Site
							{
								OFFSET 0.03720 1.77044 -0.06241
							}
						}
					}
				}
				JOINT LeftShoulder
				{
					OFFSET 0 0 0
					CHANNELS 3 Zrotation Yrotation Xrotation
					JOINT LeftArm
					{
						OFFSET 3.36241 1.20089 -0.31121
						CHANNELS 3 Zrotation Yrotation Xrotation
						JOINT LeftForeArm
						{
							OFFSET 4.98300 -0.00000 -0.00000
							CHANNELS 3 Zrotation Yrotation Xrotation
							JOINT LeftHand
							{
								OFFSET 3.48356 -0.00000 -0.00000
								CHANNELS 3 Zrotation Yrotation Xrotation
								JOINT LeftFingerBase
								{
									OFFSET 0 0 0
									CHANNELS 3 Zrotation Yrotation Xrotation
									JOINT LeftHandIndex1
									{
										OFFSET 0.71526 -0.00000 -0.00000
										CHANNELS 3 Zrotation Yrotation Xrotation
										End Site
										{
											OFFSET 0.57666 -0.00000 -0.00000
										}
									}
								}
								JOINT LThumb
								{
									OFFSET 0 0 0
									CHANNELS 3 Zrotation Yrotation Xrotation
									End Site
									{
										OFFSET 0.58547 -0.00000 0.58547
									}
								}
							}
						}
					}
				}
				JOINT RightShoulder
				{
					OFFSET 0 0 0
					CHANNELS 3 Zrotation Yrotation Xrotation
					JOINT RightArm
					{
						OFFSET -3.13660 1.37405 -0.40465
						CHANNELS 3 Zrotation Yrotation Xrotation
						JOINT RightForeArm
						{
							OFFSET -5.24190 -0.00000 -0.00000
							CHANNELS 3 Zrotation Yrotation Xrotation
							JOINT RightHand
							{
								OFFSET -3.44417 -0.00000 -0.00000
								CHANNELS 3 Zrotation Yrotation Xrotation
								JOINT RightFingerBase
								{
									OFFSET 0 0 0
									CHANNELS 3 Zrotation Yrotation Xrotation
									JOINT RightHandIndex1
									{
										OFFSET -0.62253 -0.00000 -0.00000
										CHANNELS 3 Zrotation Yrotation Xrotation
										End Site
										{
											OFFSET -0.50190 -0.00000 -0.00000
										}
									}
								}
								JOINT RThumb
								{
									OFFSET 0 0 0
									CHANNELS 3 Zrotation Yrotation Xrotation
									End Site
									{
										OFFSET -0.50956 -0.00000 0.50956
									}
								}
							}
						}
					}
				}
			}
		}
	}
}
MOTION
Frames: 8
Frame Time: 0.00851064
0.00 0.00 0.00 0 0 0 0 0 0 -21 0 0 0 0 0 0 0 0 0 0 0 0 0 0 21 0 0 0 0 0 0 0 0 0 0 0 0 0 0 0 0 0 0 0 0 0 0 -16 0 0 21 0 0 11 0 0 0 -8 0 0 0 0 0 0 0 0 0 0 0 0 0 0 0 0 0 0 0 0 8 0 0 0 0 0 0 0 0 0 0 0 0 0 0 0 0 0
0.00 0.00 0.00 -170.1860 5.6733 138.0020 0.0000 0.0000 0.0000 4.8919 8.6236 -80.0458 33.8250 14.5958 134.3200 0.3361 -16.6448 -14.8048 0.1843 -2.7652 -7.6258 0.0000 0.0000 0.0000 16.7085 7.4306 -73.5550 -33.2887 -15.0839 132.2262 -1.7389 3.6006 -24.0451 -0.0094 0.6244 -1.7159 2.7151 -12.1041 34.3917 -6.0981 -7.0198 21.7253 -5.6518 0.6964 5.3467 -7.9367 3.2821 -8.1721 7.7421 4.6985 10.2415 3.9420 2.5110 4.0083 0.0000 0.0000 0.0000 -7.2932 -58.8542 -30.7608 100.7400 -59.5596 -69.2874 -0.0000 -0.0000 18.1274 -15.6848 6.5438 -1.8329 -7.1250 0.0000 -0.0000 -33.7916 34.5166 10.2695 0.0000 0.0000 0.0000 166.5909 76.7239 122.9941 -101.8734 59.4606 -70.2640 0.0000 0.0000 19.2070 2.7581 -30.5025 -1.4008 7.1250 -0.0000 -0.0000 36.7238 -56.4481 -11.3730
0.00 0.00 0.00 -170.1590 5.4432 137.7040 0.0000 0.0000 0.0000 4.6625 9.3171 -81.6794 34.2028 14.2289 135.8377 0.3242 -16.9009 -14.8433 0.2019 -2.8933 -7.9817 0.0000 0.0000 0.0000 16.5235 7.1558 -73.5294 -33.1122 -15.2367 131.5514 -1.4030 2.6685 -21.6813 -0.0701 1.7087 -4.7014 3.3084 -12.2955 33.6886 -6.3133 -7.2672 21.6941 -6.1505 0.5991 5.4107 -8.1411 3.2270 -7.5801 8.0377 4.5921 9.5708 4.0302 2.4593 3.7023 -0.0000 -0.0000 0.0000 -4.5293 -59.2841 -33.1192 97.2667 -59.7995 -66.2889 -0.0000 -0.0000 17.6457 -16.6413 5.8992 -1.7596 -7.1250 0.0000 -0.0000 -34.2053 33.8677 11.1105 -0.0000 -0.0000 0.0000 169.4994 77.1551 125.6032 -100.0470 59.6151 -68.6897 0.0000 0.0000 18.8971 2.0732 -30.6145 -1.0561 7.1250 -0.0000 -0.0000 36.1822 -56.6797 -11.3835
0.00 0.00 0.00 -170.6900 5.0726 132.8760 0.0000 0.0000 0.0000 5.2842 15.9106 -85.2533 35.8143 12.4035 142.8253 -0.0399 -19.7896 -13.5906 0.0760 -1.7783 -4.8934 0.0000 0.0000 0.0000 15.1426 4.7088 -76.5586 -34.8173 -13.5866 138.3939 -1.1187 5.0348 -18.9514 -0.0217 0.9512 -2.6146 3.8407 -10.6047 40.0698 -3.6949 -5.7394 16.4340 -3.8994 0.5014 -1.7943 -14.2594 1.7028 -2.2330 10.8707 2.4144 11.7847 5.8160 1.2723 3.5335 -0.0000 0.0000 0.0000 -9.3791 -64.7979 -27.0144 78.1205 -59.4600 -49.7307 -0.0000 -0.0000 16.3889 -14.4731 6.0074 -1.5474 -7.1250 0.0000 -0.0000 -32.7526 34.1612 10.1812 -0.0000 0.0000 0.0000 142.5634 80.7358 99.3230 -89.2596 59.9979 -59.3588 0.0000 0.0000 17.7165 3.9150 -30.7703 -2.0052 7.1250 -0.0000 -0.0000 38.0346 -56.4258 -11.8455
0.00 0.00 0.00 -171.2410 5.4827 127.8100 0.0000 0.0000 0.0000 6.7680 23.8994 -90.7782 37.1165 10.5040 149.3751 -0.4928 -23.4367 -12.8135 0.0548 -1.5110 -4.1562 0.0000 0.0000 0.0000 15.6578 2.1330 -80.4074 -36.2942 -11.7582 145.1181 -1.1020 4.3262 -18.8727 -0.0085 -0.5965 1.6391 4.2473 -10.4411 40.1140 -4.2253 -5.4340 16.4039 -4.7768 0.7303 -1.9153 -15.0116 1.4188 -0.9935 12.5106 1.8128 12.0098 6.4504 1.0214 3.4295 -0.0000 0.0000 0.0000 5.1355 -68.0013 -40.6420 54.9987 -54.8228 -30.2149 -0.0000 -0.0000 19.1268 -11.4614 3.9023 -0.7905 -7.1250 0.0000 -0.0000 -29.9239 32.5565 10.3979 -0.0000 0.0000 0.0000 167.0309 83.5125 123.3037 -68.9004 58.2491 -41.8346 0.0000 0.0000 17.3840 2.6993 -29.4353 -1.3273 7.1250 -0.0000 -0.0000 35.7592 -55.5922 -10.2385
0.00 0.00 0.00 -171.9720 5.4443 125.9040 0.0000 0.0000 0.0000 6.9319 25.8053 -94.1982 37.5096 9.8204 151.6030 -0.7783 -25.0330 -12.0333 0.0270 -1.0614 -2.9178 0.0000 0.0000 0.0000 16.0162 1.6365 -83.5794 -36.7133 -11.1454 147.2283 -1.0000 1.1224 -18.5585 -0.0951 1.9888 -5.4746 3.6604 -9.8852 39.6766 -4.2213 -4.9753 16.5624 -4.6561 0.9448 -1.5203 -15.3161 1.1377 -0.4643 13.0888 1.3326 11.3663 6.6588 0.7796 3.2042 0.0000 0.0000 0.0000 14.7856 -68.7667 -49.6032 44.7261 -50.6336 -22.0268 -0.0000 -0.0000 19.0482 -9.1177 2.1618 -0.3469 -7.1250 0.0000 -0.0000 -27.7405 31.1635 10.5118 0.0000 0.0000 0.0000 -166.9628 83.4877 148.7746 -56.9458 55.4396 -31.8125 0.0000 0.0000 18.1351 2.4814 -28.0521 -1.1675 7.1250 -0.0000 -0.0000 34.4504 -54.4949 -8.8255
0.00 0.00 0.00 -173.3830 5.8316 122.3500 0.0000 0.0000 0.0000 12.0991 30.2026 -89.3494 37.9587 8.9515 154.3563 -1.9038 -28.1933 -6.2015 0.0646 -1.6393 -4.5099 0.0000 0.0000 0.0000 15.1782 0.9734 -80.6193 -37.1099 -10.5149 149.3391 -0.0485 -0.0447 -4.1737 -0.5745 -4.8538 13.4921 2.1402 -7.6844 39.4703 -2.3613 -3.2424 15.2947 -2.5574 1.3192 -2.4490 -13.6787 0.4378 1.3519 10.4538 0.3693 10.4092 5.4809 0.2242 2.7984 0.0000 0.0000 0.0000 -1.7205 -71.6230 -36.0501 43.9291 -50.2329 -21.4124 -0.0000 -0.0000 22.6627 -6.1140 0.7855 -0.0841 -7.1250 0.0000 -0.0000 -25.2235 30.0852 10.0853 0.0000 0.0000 0.0000 148.8811 85.4815 107.6365 -52.4440 53.9349 -28.1380 0.0000 0.0000 19.4959 1.4758 -26.8188 -0.6660 7.1250 -0.0000 -0.0000 32.6032 -53.6479 -7.5581
0.00 0.00 0.00 -173.2920 5.6277 122.0740 0.0000 0.0000 0.0000 15.0226 35.6710 -86.2205 38.2136 8.4063 156.0449 -1.6272 -29.3965 -10.3050 0.2892 -3.4586 -9.5583 0.0000 0.0000 0.0000 15.1825 -1.2207 -78.4833 -37.3146 -10.1675 150.4791 0.0297 -3.0730 -1.4827 -0.5929 -4.9296 13.7078 2.6473 -7.5091 38.3148 -2.2582 -3.3484 14.6080 -2.6930 1.0539 -2.8776 -13.3682 0.2857 2.3641 10.2305 0.1282 11.0784 5.3633 0.1224 2.8644 0.0000 -0.0000 0.0000 -14.4066 -71.5583 -24.0723 47.7121 -52.0300 -24.3586 -0.0000 -0.0000 24.1945 -5.0141 0.8471 -0.0743 -7.1250 0.0000 -0.0000 -24.4422 30.1936 9.6420 0.0000 -0.0000 0.0000 116.3574 83.1939 75.5632 -56.7017 55.3650 -31.6116 0.0000 0.0000 19.1651 0.6147 -27.1028 -0.2801 7.1250 -0.0000 -0.0000 32.0123 -54.0457 -7.7245
